<?xml version="1.0" standalone="no"?>
<!DOCTYPE svg PUBLIC "-//W3C//DTD SVG 1.1//EN" "http://www.w3.org/Graphics/SVG/1.1/DTD/svg11.dtd" >
<svg xmlns="http://www.w3.org/2000/svg">
<metadata>Generated by IcoMoon</metadata>
<defs>
<font id="seller" horiz-adv-x="1024">
<font-face units-per-em="1024" ascent="960" descent="-64" />
<missing-glyph horiz-adv-x="1024" />
<glyph unicode="&#x20;" horiz-adv-x="512" d="" />
<glyph unicode="&#xe900;" glyph-name="add_circle" d="M726 406v84h-172v172h-84v-172h-172v-84h172v-172h84v172h172zM512 874q176 0 301-125t125-301-125-301-301-125-301 125-125 301 125 301 301 125z" />
<glyph unicode="&#xe901;" glyph-name="arrow_lift" d="M246.784 491.691l443.051 442.709c24.917 24.917 62.464 24.917 87.381 0s24.917-62.464 0-87.381l-399.36-399.36 399.36-399.36c24.917-24.917 24.917-62.464 0-87.381s-62.464-24.917-87.381 0l-443.051 443.392c-24.917 24.917-24.917 62.464 0 87.381z" />
<glyph unicode="&#xe902;" glyph-name="check_circle" d="M426 234l384 384-60 62-324-324-152 152-60-60zM512 874q176 0 301-125t125-301-125-301-301-125-301 125-125 301 125 301 301 125z" />
<glyph unicode="&#xe903;" glyph-name="close" d="M810 686l-238-238 238-238-60-60-238 238-238-238-60 60 238 238-238 238 60 60 238-238 238 238z" />
<glyph unicode="&#xe904;" d="M618.047 794.773c12.588 16.88 21.362 83.255 12.779 122.736-2.575 11.825-6.485 19.645-11.158 22.22-15.926 8.678-67.042-22.697-127.6-78.2l21.457-11.539c72.86 50.163 110.72 63.037 98.799-53.119l10.395-5.627-4.673 3.529z" />
<glyph unicode="&#xe905;" d="M619.764 939.634c4.578-2.575 8.583-10.395 11.158-22.22 8.583-39.482-0.191-105.761-12.779-122.736l9.346-7.057c15.449 20.694 23.555 92.314 14.877 132.178-3.338 15.545-9.060 25.654-16.975 29.945-14.019 7.725-38.051-0.381-73.241-24.7-29.182-20.122-58.173-46.253-69.331-56.457l7.915-8.583c0.477 0.477 0.954 0.954 1.526 1.335 60.462 55.694 111.578 87.069 127.505 78.296z" />
<glyph unicode="&#xe906;" d="M513.621 849.894c-0.381-0.286-0.763-0.477-1.144-0.763l98.895-60.653c0.381 2.861 0.668 5.627 0.954 8.392 11.921 116.156-25.94 103.282-98.704 53.024z" />
<glyph unicode="&#xe907;" d="M280.451 870.589l-5.913-1.812c-6.58 21.267-43.010 56.934-73.432 72.001-12.493 6.199-22.983 8.392-29.373 6.008-10.3-3.719-18.883-27.656-22.888-63.895-3.624-32.806-3.052-67.901-0.954-88.118l132.559 75.816zM162.769 811.176c0 153.635 63.705 81.729 94.889 47.588 0 0-40.626-10.49-94.889-47.588z" />
<glyph unicode="&#xe908;" d="M148.845 882.891c4.101 36.239 12.588 60.176 22.888 63.895 6.39 2.289 16.88 0.191 29.373-6.008 30.422-15.163 66.852-50.83 73.432-72.001l11.825 3.624c-7.534 24.223-46.253 62.751-79.726 79.345-16.022 7.915-29.182 10.204-39.1 6.58-15.64-5.627-26.13-30.517-30.994-74.004-3.91-35.285-3.052-73.146-0.572-93.554l12.207 1.526-0.286 2.575c-2.193 20.122-2.766 55.217 0.954 88.023z" />
<glyph unicode="&#xe909;" d="M162.769 811.176c54.263 37.097 94.889 47.588 94.889 47.588-31.185 34.141-94.889 106.047-94.889-47.588z" />
<glyph unicode="&#xe90a;" d="M653.714 231.826c32.52 39.1 43.487 121.592 36.43 158.975-2.48 13.447-11.158 21.457-14.496 22.506-0.095-0.381-0.191-0.858-0.191-1.621-0.381-5.722-0.477-12.874-0.668-21.267-0.381-18.883-0.954-44.727-4.578-72.574-2.861-21.648-11.349-42.629-24.509-60.558-14.591-19.836-34.236-35.476-58.459-46.253l-2.48 5.627 4.578-40.054c8.488 5.245 39.291 24.986 64.372 55.217z" />
<glyph unicode="&#xe90b;" d="M702.256 393.090c-3.338 17.738-16.594 33.283-27.942 32.711-4.959-0.286-10.49-3.91-11.062-13.161-0.381-5.913-0.572-13.256-0.763-21.839-0.381-19.645-0.954-44.059-4.482-71.239-2.575-19.645-10.3-38.623-22.22-54.836-13.351-18.12-31.375-32.329-53.5-42.343l4.959-11.253c24.128 10.776 43.773 26.416 58.459 46.253 13.161 17.929 21.648 38.814 24.509 60.558 3.624 27.847 4.196 53.691 4.578 72.574 0.191 8.392 0.381 15.545 0.668 21.267 0.095 0.763 0.191 1.24 0.191 1.621 3.338-1.049 12.016-9.155 14.496-22.506 7.057-37.384-3.91-119.78-36.43-158.975-25.081-30.231-55.98-49.972-64.372-55.122-1.43-0.858-2.193-1.335-2.289-1.335l6.103-10.681c1.621 0.858 39.386 22.316 70.094 59.318 35.285 42.343 46.729 128.363 39.005 168.989z" />
<glyph unicode="&#xe90c;" d="M582.476 202.93c-3.147 13.923-11.539 31.757-33.95 38.719h-291.63c-3.529-2.003-14.686-8.774-24.604-20.79-15.545-18.883-21.076-41.389-16.403-66.947 1.335-3.147 2.193-6.485 2.956-9.727 1.717-7.152 3.052-11.635 7.343-13.923 7.343-4.005 23.174-1.907 47.206 6.199 30.422 10.3 85.639 15.735 151.346 14.782 58.269-0.763 112.437-6.676 134.752-14.591 1.144-0.381 4.578-1.621 9.537 2.766 10.872 9.632 19.169 38.146 13.447 63.514z" />
<glyph unicode="&#xe90d;" d="M594.015 205.505c-5.436 24.223-20.694 41.198-42.915 47.683l-0.858 0.191h-296.112l-1.24-0.572c-0.668-0.286-15.735-7.82-29.277-24.128-12.588-15.068-26.13-40.817-19.073-77.628l0.095-0.668 0.286-0.668c1.049-2.384 1.812-5.245 2.575-8.392 1.812-7.343 4.005-16.498 13.065-21.457 4.196-2.289 9.346-3.433 15.735-3.433 10.204 0 23.46 2.861 40.912 8.774 29.182 9.918 82.969 15.068 147.341 14.114 57.124-0.763 109.767-6.39 130.938-13.923 7.152-2.575 14.782-0.763 21.267 5.054 15.64 13.923 23.365 47.588 17.261 75.053zM568.934 139.321c-4.959-4.387-8.392-3.147-9.537-2.766-22.316 7.915-76.388 13.828-134.752 14.591-65.707 0.954-120.924-4.482-151.346-14.782-24.032-8.106-39.863-10.204-47.206-6.199-4.291 2.384-5.531 6.866-7.343 13.923-0.763 3.242-1.621 6.58-2.956 9.727-4.673 25.558 0.858 48.065 16.403 66.947 9.918 12.016 21.076 18.883 24.604 20.79h291.535c22.411-6.962 30.899-24.891 33.95-38.719 5.913-25.272-2.384-53.787-13.351-63.514z" />
<glyph unicode="&#xe90e;" d="M543.185 437.34l-287.529-5.913s-56.361-194.356 0-273.224c23.174-32.425 43.392-46.634 59.604-46.634 23.174 0 38.242 28.991 42.533 74.862l83.541 0.858c6.866-50.258 29.087-79.059 53.5-79.059 18.501 0 38.433 16.689 53.691 53.214 37.384 89.358-5.341 275.894-5.341 275.894z" />
<glyph unicode="&#xe90f;" d="M572.081 334.249c-6.008 57.887-16.498 103.949-16.975 105.856l-2.193 9.632-306.507-6.199-2.48-8.583c-0.572-2.003-14.4-50.258-21.553-109.004-4.196-34.809-5.054-65.993-2.67-92.791 3.147-34.618 11.825-62.179 26.035-81.92 24.509-34.332 47.969-51.784 69.617-51.784 11.062 0 26.893 4.578 39.005 26.512 6.866 12.302 11.73 28.61 14.4 48.446l62.274 0.668c4.005-21.362 11.062-39.577 20.504-53.024 11.73-16.689 27.084-25.844 43.296-25.844 14.782 0 42.819 7.915 64.944 60.653 16.308 38.909 20.408 98.609 12.302 177.381zM494.834 108.231c-24.414 0-46.634 28.801-53.5 79.059l-83.541-0.858c-4.291-45.871-19.359-74.862-42.533-74.862-16.212 0-36.43 14.21-59.604 46.634-56.361 78.868 0 273.224 0 273.224l287.529 5.913s42.724-186.536 5.341-275.894c-15.259-36.525-35.19-53.214-53.691-53.214z" />
<glyph unicode="&#xe910;" d="M670.594 652.105c-17.833 102.519-59.509 228.688-286.003 228.688-7.248 0-14.782-0.191-22.506-0.477-209.52-7.248-260.541-124.262-274.845-233.838-14.496-111.102-4.387-224.492 301.548-224.587h1.43c305.458 0.381 298.21 127.695 280.377 230.214z" />
<glyph unicode="&#xe911;" d="M682.706 654.108c-7.439 42.915-15.545 66.852-20.981 81.157-11.73 30.899-27.084 56.266-46.825 77.723-23.269 25.177-52.928 44.536-88.214 57.697-39.386 14.877-87.165 22.316-142 22.316-7.534 0-15.163-0.095-22.983-0.381-51.212-1.812-96.034-10.204-133.417-25.081-34.141-13.542-62.942-32.901-85.734-57.41-19.932-21.457-35.762-47.492-47.206-77.533-9.441-24.795-16.022-52.451-20.218-84.494-7.343-56.743-8.678-115.584 31.471-161.36 22.125-25.177 54.263-43.678 98.227-56.457 47.778-13.828 107.955-20.599 184.057-20.599h1.43c136.564 0.191 224.015 25.272 267.312 76.77 18.883 22.506 29.277 49.59 31.757 82.969 2.098 28.705-1.907 57.697-6.676 84.685zM87.239 646.478c14.305 109.576 65.326 226.59 274.845 233.838 7.725 0.286 15.259 0.477 22.506 0.477 226.495 0 268.17-126.17 286.003-228.688s25.081-229.833-280.377-230.214h-1.43c-305.935 0.095-316.044 113.486-301.548 224.587z" />
<glyph unicode="&#xe912;" d="M362.084 880.316c-209.52-7.248-260.541-124.262-274.845-233.838-0.381-2.67-0.668-5.341-0.954-8.011 7.629 2.003 17.452-0.668 30.517-11.825 79.249-66.947 139.712-77.151 188.062-52.738 51.307 25.94-12.016 167.94 75.625 167.94 82.683 0 35.572-160.311 117.014-170.896 107.478-13.923 85.925 55.694 142.572 55.694 12.207 0 24.7-4.578 35.858-10.681-1.335 12.207-3.242 24.318-5.341 36.144-18.406 105.761-62.274 236.794-308.51 228.211z" />
<glyph unicode="&#xe913;" d="M281.967 701.939c0 0 0 0.001 0.001 0.001 6.202 10.772-0.575 26.301-15.136 34.683s-31.392 6.446-37.594-4.327c0 0 0-0.001-0.001-0.001v0c0 0 0-0.001-0.001-0.001-6.202-10.772 0.575-26.301 15.136-34.683s31.392-6.446 37.594 4.327c0 0 0 0.001 0.001 0.001v0z" />
<glyph unicode="&#xe914;" d="M468.603 714.661c0.001-0.001 0.001-0.002 0.002-0.003 6.032-10.868 22.831-13.068 37.522-4.914s21.709 23.574 15.676 34.442c-0.001 0.001-0.001 0.002-0.002 0.004v0c-0.001 0.001-0.001 0.002-0.002 0.003-6.032 10.868-22.831 13.068-37.522 4.914s-21.709-23.574-15.676-34.442c0.001-0.001 0.001-0.002 0.002-0.004v0z" />
<glyph unicode="&#xe915;" d="M355.313 614.149c-0.668-2.67-1.144-5.531-1.144-8.488 0-18.692 15.163-33.855 33.855-33.855s33.855 15.163 33.855 33.855c0 2.956-0.381 5.722-1.144 8.488 0 0-6.771 14.877-32.711 14.877-25.94 0.095-32.711-14.877-32.711-14.877z" />
<glyph unicode="&#xe916;" d="M185.371 640.852s0.095 0.095 0.191 0.381c0.095 0.191 0.286 0.572 0.572 0.954 0.477 0.858 1.24 2.098 2.289 3.529s2.384 3.147 4.005 4.959c1.621 1.812 3.624 3.815 5.913 5.817 2.289 1.907 4.959 4.005 7.915 5.913 1.43 1.049 3.052 1.812 4.673 2.766 0.763 0.477 1.621 0.858 2.48 1.335 0.858 0.381 1.717 0.858 2.575 1.24 1.812 0.858 3.624 1.526 5.531 2.193 0.954 0.286 1.907 0.668 2.861 0.954s2.003 0.572 2.956 0.858 2.003 0.477 3.052 0.763 2.098 0.477 3.147 0.572 2.098 0.286 3.147 0.381l1.621 0.191 1.621 0.095 3.242 0.095c1.049 0 2.193 0 3.242-0.095 2.193 0 4.291-0.381 6.485-0.572 2.098-0.286 4.196-0.763 6.294-1.24 2.003-0.572 4.005-1.144 5.913-1.907 0.954-0.381 1.907-0.763 2.766-1.24 0.954-0.381 1.812-0.763 2.67-1.335l2.575-1.43c0.858-0.477 1.621-0.858 2.384-1.526 1.526-1.144 2.956-2.098 4.291-3.147 1.24-1.144 2.48-2.289 3.624-3.338 0.572-0.572 1.049-1.144 1.621-1.717 0.477-0.572 0.954-1.144 1.43-1.621 0.858-1.144 1.812-2.098 2.48-3.147s1.335-2.003 1.907-2.956c0.286-0.477 0.572-0.858 0.858-1.335 0.286-0.381 0.477-0.858 0.668-1.24 0.858-1.621 1.335-2.956 1.717-3.815 0.191-0.477 0.286-0.763 0.381-1.049 0.095-0.191 0.095-0.381 0.095-0.381l-0.858-0.858s-1.335 1.335-3.719 3.529c-0.286 0.286-0.572 0.572-0.954 0.858s-0.668 0.572-1.049 0.858c-0.763 0.668-1.621 1.335-2.48 2.003-0.858 0.763-1.907 1.43-2.861 2.098-0.477 0.381-1.049 0.763-1.621 1.144s-1.049 0.763-1.717 1.144c-1.144 0.668-2.48 1.43-3.719 2.193-1.335 0.668-2.766 1.335-4.101 2.098-0.668 0.381-1.43 0.668-2.193 0.954s-1.526 0.572-2.289 0.954-1.621 0.572-2.384 0.763c-0.763 0.286-1.621 0.477-2.48 0.763-1.621 0.477-3.433 0.763-5.15 1.24-0.858 0.095-1.812 0.286-2.67 0.381s-1.812 0.286-2.67 0.381c-1.812 0.095-3.624 0.381-5.436 0.286h-2.766l-4.196-0.286-1.335-0.191-2.766-0.286c-0.954-0.095-1.812-0.286-2.766-0.477-0.858-0.191-1.812-0.286-2.67-0.477-1.812-0.381-3.529-0.763-5.245-1.24s-3.433-0.954-5.054-1.526c-3.338-1.144-6.485-2.289-9.346-3.624-2.956-1.24-5.627-2.67-8.106-3.91-2.48-1.335-4.673-2.575-6.676-3.719s-3.624-2.289-4.959-3.147c-2.67-1.812-4.196-2.956-4.196-2.956l-0.763 1.144z" />
<glyph unicode="&#xe917;" d="M475.952 646.574s0.095 0.095 0.191 0.381c0.095 0.191 0.286 0.572 0.572 0.954 0.477 0.858 1.24 2.098 2.289 3.529s2.384 3.147 4.005 4.959c1.621 1.812 3.624 3.815 5.913 5.817 2.289 1.907 4.959 4.005 7.915 5.913 1.43 1.049 3.052 1.812 4.673 2.766 0.763 0.477 1.621 0.858 2.48 1.335 0.858 0.381 1.717 0.858 2.575 1.24 1.812 0.858 3.624 1.526 5.531 2.193 0.954 0.286 1.907 0.668 2.861 0.954s2.003 0.572 2.956 0.858 2.003 0.477 3.052 0.763 2.098 0.477 3.147 0.572 2.098 0.286 3.147 0.381l1.621 0.191 1.621 0.095 3.242 0.095c1.049 0 2.193 0 3.242-0.095 2.193 0 4.291-0.381 6.485-0.572 2.098-0.286 4.196-0.763 6.294-1.24 2.003-0.572 4.005-1.144 5.913-1.907 0.954-0.381 1.907-0.763 2.766-1.24 0.954-0.381 1.812-0.763 2.67-1.335l2.575-1.43c0.858-0.477 1.621-0.858 2.384-1.526 1.526-1.144 2.956-2.098 4.291-3.147 1.24-1.144 2.48-2.289 3.624-3.338 0.572-0.572 1.049-1.144 1.621-1.717 0.477-0.572 0.954-1.144 1.43-1.621 0.858-1.144 1.812-2.098 2.48-3.147s1.335-2.003 1.907-2.956c0.286-0.477 0.572-0.858 0.858-1.335 0.286-0.381 0.477-0.858 0.668-1.24 0.858-1.621 1.335-2.956 1.717-3.815 0.191-0.477 0.286-0.763 0.381-1.049 0.095-0.191 0.095-0.381 0.095-0.381l-0.858-0.858s-1.335 1.335-3.719 3.529c-0.286 0.286-0.572 0.572-0.954 0.858s-0.668 0.572-1.049 0.858c-0.763 0.668-1.621 1.335-2.48 2.003-0.858 0.763-1.907 1.43-2.861 2.098-0.477 0.381-1.049 0.763-1.621 1.144s-1.049 0.763-1.717 1.144c-1.144 0.668-2.48 1.43-3.719 2.193-1.335 0.668-2.766 1.335-4.101 2.098-0.668 0.381-1.43 0.668-2.193 0.954s-1.526 0.572-2.289 0.954c-0.763 0.381-1.621 0.572-2.384 0.763-0.763 0.286-1.621 0.477-2.48 0.763-1.621 0.477-3.433 0.763-5.15 1.24-0.858 0.095-1.812 0.286-2.67 0.381s-1.812 0.286-2.67 0.381c-1.812 0.095-3.624 0.381-5.436 0.286h-2.766l-4.196-0.286-1.335-0.191-2.766-0.286c-0.954-0.095-1.812-0.286-2.766-0.477-0.858-0.191-1.812-0.286-2.67-0.477-1.812-0.381-3.529-0.763-5.245-1.24s-3.433-0.954-5.054-1.526c-3.338-1.144-6.485-2.289-9.346-3.624-2.956-1.24-5.627-2.67-8.106-3.91-2.48-1.335-4.673-2.575-6.676-3.719s-3.624-2.289-4.959-3.147c-2.67-1.812-4.196-2.956-4.196-2.956l-0.763 1.144z" />
<glyph unicode="&#xe918;" d="M390.027 441.632h-0.191c-8.488 0.095-15.831 3.338-21.839 9.727-20.694 22.030-18.215 75.816-18.12 78.010l12.207-0.668c-0.763-14.114 0.572-53.977 14.782-69.045 3.719-3.91 7.915-5.817 13.065-5.913h0.095c13.351 0 22.22 38.433 24.032 64.468l12.207-0.858c-0.095-0.763-1.335-18.31-5.817-36.239-6.58-26.13-16.784-39.482-30.422-39.482zM362.18 528.796v0z" />
<glyph unicode="&#xe919;" d="M415.013 512.012c-7.629 0-14.972 4.578-22.125 13.637-10.681-10.013-20.885-13.828-30.231-11.253-18.978 5.15-25.272 34.046-25.94 37.288-0.668 3.338 1.526 6.485 4.768 7.152 3.338 0.668 6.485-1.43 7.152-4.768 1.335-6.39 7.248-25.272 17.166-27.942 7.629-2.098 16.784 6.008 23.174 13.065 1.24 1.43 3.147 2.193 5.054 2.003s3.624-1.144 4.673-2.766c6.294-9.823 12.398-14.782 17.166-14.114 8.678 1.24 16.784 18.883 19.359 27.275 0.954 3.242 4.387 5.054 7.629 4.101s5.054-4.387 4.101-7.629c-0.095-0.286-2.48-8.011-6.866-16.117-6.485-11.921-14.019-18.501-22.411-19.741-0.954-0.191-1.812-0.191-2.67-0.191z" />
<glyph unicode="&#xe91a;" d="M388.024 470.528c-0.191 0-0.381 0-0.572 0.095-1.621 0.381-2.766 1.907-2.384 3.624 3.815 18.596 1.717 40.34 1.717 40.531-0.191 1.717 1.049 3.147 2.766 3.338s3.147-1.049 3.338-2.766c0.095-0.954 2.193-22.888-1.717-42.438-0.477-1.43-1.717-2.384-3.147-2.384z" />
<glyph unicode="&#xe91b;" d="M411.484 357.805c-186.441 13.733-121.783-236.317-121.783-236.317 37.574-27.179 62.37 3.815 68.091 64.944l83.541 0.858c7.915-57.697 36.048-87.069 64.468-77.056 20.408 71.62 51.402 236.794-94.317 247.571z" />
<glyph unicode="&#xe91c;" glyph-name="favorite" d="M512 50l-62 56c-220 200-364 330-364 492 0 132 102 234 234 234 74 0 146-36 192-90 46 54 118 90 192 90 132 0 234-102 234-234 0-162-144-294-364-494z" />
<glyph unicode="&#xe91d;" glyph-name="keyboard_arrow_right" d="M366 262l196 196-196 196 60 60 256-256-256-256z" />
<glyph unicode="&#xe91e;" glyph-name="remove_circle_outline" d="M512 106q140 0 241 101t101 241-101 241-241 101-241-101-101-241 101-241 241-101zM512 874q176 0 301-125t125-301-125-301-301-125-301 125-125 301 125 301 301 125zM298 490h428v-84h-428v84z" />
<glyph unicode="&#xe91f;" glyph-name="shopping_cart" d="M726 192q34 0 59-26t25-60-25-59-59-25-60 25-26 59 26 60 60 26zM42 874h140l40-84h632q18 0 30-13t12-31q0-10-6-20l-152-276q-24-44-74-44h-318l-38-70-2-6q0-10 10-10h494v-86h-512q-34 0-59 26t-25 60q0 20 10 40l58 106-154 324h-86v84zM298 192q34 0 60-26t26-60-26-59-60-25-59 25-25 59 25 60 59 26z" />
<glyph unicode="&#xe920;" glyph-name="thumb_down" d="M810 832h172v-512h-172v512zM640 832q34 0 60-26t26-60v-426q0-34-26-60l-280-282-46 46q-18 18-18 44v14l42 196h-270q-34 0-60 25t-26 59l2 4h-2v82q0 16 6 32l130 300q20 52 78 52h384z" />
<glyph unicode="&#xe921;" glyph-name="thumb_up" d="M982 534l-2-4h2v-82q0-16-6-32l-130-300q-20-52-78-52h-384q-34 0-60 26t-26 60v426q0 34 26 60l280 282 46-46q18-18 18-44v-14l-42-196h270q34 0 60-25t26-59zM42 64v512h172v-512h-172z" />
<glyph unicode="&#xe922;" glyph-name="wifi" d="M511.619 790.387c159.706 0 322.213-58.279 444.374-180.44 15.69-15.69 40.347-15.69 56.037 0 7.285 7.285 11.768 17.372 11.768 28.019s-3.923 20.734-11.768 28.019c-137.291 137.291-319.972 203.415-499.851 203.415-180.44 0-362.56-66.124-499.851-203.415-7.285-7.285-11.768-17.372-11.768-28.019s3.923-20.734 11.768-28.019c15.69-15.69 40.347-15.69 56.037 0 122.161 122.161 284.108 180.44 444.374 180.44zM901.637 481.062c-13.449-15.69-36.985-18.492-53.235-6.164-103.108 76.21-213.501 130.006-336.223 130.006-123.282 0-233.114-53.796-336.223-130.006-16.811-12.328-39.786-9.526-53.235 6.164-7.285 8.406-10.647 19.053-8.966 30.26 1.121 11.207 6.724 20.734 15.69 27.458 117.118 86.297 243.761 145.697 383.294 145.697s266.176-58.839 383.294-145.697c8.966-6.724 14.57-16.251 15.69-27.458s-1.681-21.294-8.966-30.26zM511.619 422.783c84.056 0 156.344-25.217 228.071-76.21 16.811-11.768 39.786-8.966 52.675 6.724 7.285 8.966 10.647 19.053 8.966 30.26-1.121 11.207-6.724 20.734-16.251 27.458-85.176 60.52-173.715 90.78-273.461 90.78s-188.845-30.26-273.461-90.78c-9.526-6.724-15.13-15.69-16.251-27.458-1.681-11.207 1.681-21.854 8.966-30.26 13.449-15.69 35.864-18.492 52.675-6.724 71.167 50.433 144.015 76.21 228.071 76.21zM511.619 245.146h-1.681c-39.786 0-79.012-11.768-112.074-33.622-16.811-11.207-38.666-7.845-52.115 7.285-7.845 8.966-10.647 19.613-8.966 31.381s7.285 21.294 17.372 27.458c45.95 30.26 99.746 47.071 155.783 47.071h3.362c55.477 0 109.833-16.251 155.783-47.071 9.526-6.724 15.69-15.69 17.372-27.458s-1.681-22.415-8.966-31.381c-12.889-15.13-35.303-18.492-52.115-7.285-33.062 21.854-71.728 33.622-112.074 33.622h-1.681zM452.22 88.242c-0.56-21.854 10.647-42.028 29.139-53.235s42.028-11.207 60.52 0 29.7 31.381 29.139 53.235c-1.121 31.941-27.458 57.158-59.399 57.158s-58.279-25.217-59.399-57.158z" />
<glyph unicode="&#xeae4;" glyph-name="html-five" d="M60.538 960l82.144-921.63 368.756-102.37 369.724 102.524 82.3 921.476h-902.924zM784.63 658.572h-432.54l10.302-115.75h411.968l-31.042-347.010-231.844-64.254-231.572 64.254-15.83 177.512h113.494l8.048-90.232 125.862-33.916 0.278 0.078 125.934 33.992 13.070 146.55h-391.74l-30.494 341.8h566.214l-10.108-113.024z" />
<glyph unicode="&#xeae5;" glyph-name="html-five2" d="M60.538 960l82.144-921.63 368.756-102.37 369.724 102.524 82.3 921.476h-902.924zM810.762 97.176l-297.226-82.376v-0.466l-0.776 0.234-0.782-0.234v0.466l-297.222 82.376-70.242 787.486h736.496l-70.248-787.486zM650.754 429.796l-13.070-146.552-126.21-34.070-125.862 33.916-8.050 90.234h-113.49l15.83-177.512 232.076-64.176 231.342 64.176 31.040 347.012h-411.966l-10.302 115.748h432.534l10.112 113.026h-566.218l30.498-341.802z" />
</font>
</defs>
</svg>
